<?xml version="1.0" encoding="UTF-8" standalone="no"?>
<!-- Created with Inkscape (http://www.inkscape.org/) -->

<svg
   width="75.366013mm"
   height="23.090919mm"
   viewBox="0 0 75.366013 23.090919"
   version="1.1"
   id="svg1"
   xmlns="http://www.w3.org/2000/svg"
   xmlns:svg="http://www.w3.org/2000/svg">
  <defs
     id="defs1" />
  <g
     id="layer1"
     transform="translate(-66.827402,-136.35661)">
    <g
       id="g506"
       transform="matrix(0.15393939,0,0,0.15393939,314.54916,-21.505691)">
      <rect
         style="opacity:0;fill:#ffffff;fill-opacity:1;stroke-width:21.1845"
         id="rect467"
         width="550"
         height="220"
         x="-1639.4249"
         y="990.48358"
         ry="2.2300642" />
      <g
         id="g504"
         transform="matrix(1.5422579,0,0,1.5422579,1066.5785,252.73524)">
        <g
           id="g475">
          <g
             id="g471">
            <path
               class="st7"
               d="m -1599.74,525.35 -4.83,-1.24 c -6.68,-1.72 -7.22,-3.7 -7.22,-5.73 0,-2.03 2.69,-4.77 8.67,-4.91 3.38,-0.08 5.94,0.63 7.46,2.1 1.26,1.22 1.51,2.71 1.51,3.76 h 6.55 c 0,-3.26 -1.24,-6.24 -3.49,-8.44 -1.95,-1.91 -5.67,-4.16 -12.2,-3.97 -9.89,0.25 -15.06,5.96 -15.06,11.47 0,7.92 6.49,10.63 12.14,12.1 l 4.83,1.24 c 6.66,1.72 7.22,3.72 7.22,5.78 0,1.93 -2.69,4.73 -8.67,4.87 -3.4,0.08 -5.94,-0.63 -7.46,-2.1 -1.26,-1.22 -1.51,-2.71 -1.51,-3.74 h -6.55 c 0,3.23 1.24,6.24 3.47,8.42 1.89,1.85 5.42,3.99 11.51,3.99 h 0.69 c 9.91,-0.25 15.08,-5.96 15.08,-11.47 0,-7.94 -6.49,-10.65 -12.14,-12.12 z"
               id="path467"
               style="fill:#53575a" />
            <path
               class="st7"
               d="m -1564.25,506.93 c -11.59,0 -21.02,9.45 -21.02,21.04 0,11.59 9.43,21.04 21.02,21.04 11.59,0 21.04,-9.43 21.04,-21.04 0,-11.61 -9.45,-21.04 -21.04,-21.04 z m 0,35.54 c -7.98,0 -14.47,-6.49 -14.47,-14.49 0,-8 6.49,-14.47 14.47,-14.47 7.98,0 14.47,6.51 14.47,14.47 0,7.96 -6.49,14.49 -14.47,14.49 z"
               id="path468"
               style="fill:#53575a" />
            <path
               class="st7"
               d="m -1504.1,507.33 -13.86,21.04 -13.86,-21.04 h -7.86 l 0.11,0.17 v 41.14 h 6.57 v -31.17 l 11.07,16.82 h 7.92 l 11.09,-16.82 v 31.17 h 6.55 V 507.5 l 0.13,-0.17 h -7.85 z"
               id="path469"
               style="fill:#53575a" />
            <path
               class="st7"
               d="m -1471.7,506.93 c -11.59,0 -21.04,9.45 -21.04,21.04 0,11.59 9.45,21.04 21.04,21.04 11.59,0 21.02,-9.43 21.02,-21.04 0,-11.61 -9.43,-21.04 -21.02,-21.04 z m 0,35.54 c -7.98,0 -14.47,-6.49 -14.47,-14.49 0,-8 6.49,-14.47 14.47,-14.47 7.98,0 14.47,6.51 14.47,14.47 0,7.96 -6.49,14.49 -14.47,14.49 z"
               id="path470"
               style="fill:#53575a" />
            <path
               class="st7"
               d="m -1429.71,525.35 -4.81,-1.24 c -6.68,-1.72 -7.22,-3.7 -7.22,-5.73 0,-2.03 2.69,-4.77 8.67,-4.91 3.38,-0.08 5.94,0.63 7.46,2.1 1.22,1.22 1.49,2.71 1.49,3.76 h 6.57 c 0,-3.26 -1.24,-6.24 -3.51,-8.44 -1.93,-1.91 -5.65,-4.16 -12.2,-3.97 -9.87,0.25 -15.06,5.96 -15.06,11.47 0,7.92 6.49,10.63 12.16,12.1 l 4.81,1.24 c 6.68,1.72 7.22,3.72 7.22,5.78 0,1.93 -2.69,4.73 -8.67,4.87 -3.38,0.08 -5.94,-0.63 -7.46,-2.1 -1.24,-1.22 -1.49,-2.71 -1.49,-3.74 h -6.57 c 0,3.23 1.24,6.24 3.49,8.42 1.89,1.85 5.4,3.99 11.51,3.99 h 0.69 c 9.89,-0.25 15.08,-5.96 15.08,-11.47 0,-7.94 -6.49,-10.65 -12.16,-12.12 z"
               id="path471"
               style="fill:#53575a" />
          </g>
          <path
             class="st7"
             d="m -1617.11,554.52 v 6.89 h 12.94 v 36.5 h 6.91 v -36.5 h 12.94 v -6.89 h -32.78 z"
             id="path472"
             style="fill:#53575a" />
          <path
             class="st7"
             d="m -1563.96,554.16 c -12.18,0 -22.07,9.91 -22.07,22.07 0,12.16 9.89,22.07 22.07,22.07 12.18,0 22.05,-9.89 22.05,-22.07 0,-12.18 -9.89,-22.07 -22.05,-22.07 z m 0,37.28 c -8.38,0 -15.18,-6.8 -15.18,-15.21 0,-8.41 6.8,-15.18 15.18,-15.18 8.38,0 15.16,6.83 15.16,15.18 0,8.35 -6.8,15.21 -15.16,15.21 z"
             id="path473"
             style="fill:#53575a" />
          <path
             class="st7"
             d="m -1522.63,554.73 h -14.33 v 43.58 h 14.33 c 12.02,0 21.8,-9.76 21.8,-21.78 0,-12.02 -9.78,-21.8 -21.8,-21.8 z m 0,36.62 h -7.38 V 561.7 h 7.38 c 8.17,0 14.82,6.66 14.82,14.82 0,8.16 -6.66,14.82 -14.82,14.82 z"
             id="path474"
             style="fill:#53575a" />
          <path
             class="st7"
             d="m -1430.3,573.48 -5.06,-1.28 c -6.99,-1.83 -7.56,-3.91 -7.56,-6.05 0,-2.14 2.81,-4.98 9.09,-5.15 3.53,-0.06 6.24,0.67 7.81,2.21 1.3,1.28 1.58,2.84 1.58,3.95 h 6.89 c 0,-3.4 -1.3,-6.55 -3.65,-8.86 -2.06,-2 -5.94,-4.35 -12.81,-4.16 -10.37,0.27 -15.79,6.24 -15.79,12.01 0,8.34 6.8,11.17 12.73,12.71 l 5.06,1.28 c 6.99,1.83 7.58,3.93 7.58,6.07 0,2.02 -2.81,4.96 -9.09,5.12 -3.57,0.08 -6.24,-0.67 -7.81,-2.21 -1.32,-1.28 -1.58,-2.84 -1.58,-3.93 h -6.89 c 0,3.4 1.3,6.55 3.63,8.84 2,1.93 5.67,4.18 12.08,4.18 h 0.74 c 10.37,-0.27 15.81,-6.26 15.81,-12.03 0,-8.32 -6.8,-11.15 -12.75,-12.71 z"
             id="path475"
             style="fill:#53575a" />
        </g>
        <g
           id="g496">
          <path
             class="st7"
             d="m -1665.67,549.98 v 15.81 c 0,1.38 -0.97,2.57 -2.3,2.87 l -16.38,3.59 -16.36,-3.59 c -1.33,-0.31 -2.3,-1.5 -2.3,-2.87 v -15.83 l -1.46,1.07 v 14.76 c 0,2.05 1.46,3.84 3.45,4.27 l 16.53,3.65 0.14,0.02 16.69,-3.67 c 1.99,-0.43 3.43,-2.22 3.43,-4.27 v -14.74 z m -38.8,-20.76 v 18.91 l 1.4,-0.37 0.06,-0.02 v -17.08 h 37.34 v 17.1 l 1.44,0.39 v -18.93 z"
             id="path476"
             style="fill:#53575a" />
          <path
             class="st7"
             d="m -1700.39,533.25 v 29.52 c 0,1.68 1.19,3.16 2.83,3.53 l 13.2,2.89 13.2,-2.89 c 1.64,-0.37 2.83,-1.85 2.83,-3.53 v -29.52 h -32.07 z m 30.63,29.52 c 0,1.01 -0.72,1.91 -1.7,2.11 l -12.34,2.73 -0.55,0.12 -0.9,-0.21 -11.99,-2.65 c -0.99,-0.21 -1.68,-1.11 -1.68,-2.11 v -28.08 h 29.17 v 28.08 z"
             id="path477"
             style="fill:#53575a" />
          <path
             class="st7"
             d="m -1689.84,558.94 v -1.24 h -1.03 v 0.57 h -0.67 v -0.57 h -1.17 v 0.57 h -0.7 v -0.57 h -1.06 v 1.24 h -1.21 v 4.6 h 3.03 v -2.18 c 0,-0.19 0.15,-0.33 0.33,-0.33 h 0.45 c 0.19,0 0.35,0.15 0.35,0.33 v 2.18 h 2.97 v -4.6 h -1.3 z m -3.91,2.39 h -0.98 v -1.4 h 0.98 z m 4.24,0 h -0.98 v -1.4 h 0.98 z"
             id="path478"
             style="fill:#53575a" />
          <path
             class="st7"
             d="m -1689.84,538.47 v -1.24 h -1.03 v 0.57 h -0.67 v -0.57 h -1.17 v 0.57 h -0.7 v -0.57 h -1.06 v 1.24 h -1.21 v 4.6 h 3.03 v -2.18 c 0,-0.19 0.15,-0.33 0.33,-0.33 h 0.45 c 0.19,0 0.35,0.15 0.35,0.33 v 2.18 h 2.97 v -4.6 h -1.3 z m -3.91,2.39 h -0.98 v -1.4 h 0.98 z m 4.24,0 h -0.98 v -1.4 h 0.98 z"
             id="path479"
             style="fill:#53575a" />
          <rect
             class="st7"
             x="-1685.25"
             y="534.20001"
             width="1.4400001"
             height="34.040001"
             id="rect479"
             style="fill:#53575a" />
          <polygon
             class="st7"
             points="-1700.18,543.89 -1699.63,542.55 -1684.25,552.83 -1684.8,554.17 "
             id="polygon479"
             style="fill:#53575a" />
          <polygon
             class="st7"
             points="-1700.18,547.97 -1699.63,546.64 -1684.25,556.92 -1684.8,558.25 "
             id="polygon480"
             style="fill:#53575a" />
          <g
             id="g484">
            <g
               id="g481">
              <path
                 class="st7"
                 d="m -1678.64,540.22 v -1.09 h -1.09 l -0.75,-0.75 -0.77,0.75 h -1.09 v 1.09 l -0.75,0.77 0.75,0.75 v 1.09 h 1.09 l 0.77,0.77 0.75,-0.77 h 1.09 v -1.09 l 0.77,-0.75 z m -1.08,1.07 v 0.46 h -0.46 l -0.29,0.29 -0.31,-0.29 h -0.43 v -0.46 l -0.31,-0.29 0.31,-0.31 v -0.43 h 0.43 l 0.31,-0.31 0.29,0.31 h 0.46 v 0.43 l 0.31,0.31 z"
                 id="path480"
                 style="fill:#53575a" />
              <path
                 class="st7"
                 d="m -1671.25,540.22 v -1.09 h -1.09 l -0.77,-0.75 -0.75,0.75 h -1.09 v 1.09 l -0.77,0.77 0.77,0.75 v 1.09 h 1.09 l 0.75,0.77 0.77,-0.77 h 1.09 v -1.09 l 0.77,-0.75 z m -1.11,1.07 v 0.46 h -0.43 l -0.31,0.29 -0.29,-0.29 h -0.43 v -0.46 l -0.31,-0.29 0.31,-0.31 v -0.43 h 0.43 l 0.29,-0.31 0.31,0.31 h 0.43 v 0.43 l 0.31,0.31 z"
                 id="path481"
                 style="fill:#53575a" />
            </g>
            <g
               id="g483">
              <path
                 class="st7"
                 d="m -1678.64,557.73 v -1.06 h -1.09 l -0.75,-0.77 -0.77,0.77 h -1.09 v 1.06 l -0.75,0.77 0.75,0.77 v 1.09 h 1.09 l 0.77,0.75 0.75,-0.75 h 1.09 v -1.09 l 0.77,-0.77 z m -1.08,1.08 v 0.43 h -0.46 l -0.29,0.31 -0.31,-0.31 h -0.43 v -0.43 l -0.31,-0.31 0.31,-0.31 v -0.43 h 0.43 l 0.31,-0.29 0.29,0.29 h 0.46 v 0.43 l 0.31,0.31 z"
                 id="path482"
                 style="fill:#53575a" />
              <path
                 class="st7"
                 d="m -1671.25,557.73 v -1.06 h -1.09 l -0.77,-0.77 -0.75,0.77 h -1.09 v 1.06 l -0.77,0.77 0.77,0.77 v 1.09 h 1.09 l 0.75,0.75 0.77,-0.75 h 1.09 v -1.09 l 0.77,-0.77 z m -1.11,1.08 v 0.43 h -0.43 l -0.31,0.31 -0.29,-0.31 h -0.43 v -0.43 l -0.31,-0.31 0.31,-0.31 v -0.43 h 0.43 l 0.29,-0.29 0.31,0.29 h 0.43 v 0.43 l 0.31,0.31 z"
                 id="path483"
                 style="fill:#53575a" />
            </g>
            <path
               class="st7"
               d="m -1674.94,548.99 v -1.09 h -1.09 l -0.75,-0.75 -0.77,0.75 h -1.09 v 1.09 l -0.75,0.75 0.75,0.77 v 1.09 h 1.09 l 0.77,0.75 0.75,-0.75 h 1.09 v -1.09 l 0.77,-0.77 z m -1.09,1.06 v 0.43 h -0.46 l -0.29,0.31 -0.31,-0.31 h -0.43 v -0.43 l -0.31,-0.31 0.31,-0.31 v -0.41 h 0.43 l 0.31,-0.31 0.29,0.31 h 0.46 v 0.41 l 0.29,0.31 z"
               id="path484"
               style="fill:#53575a" />
          </g>
          <path
             class="st7"
             d="m -1661.24,517.91 c 0,-1.48 -1.19,-2.67 -2.65,-2.67 -0.51,0 -0.99,0.14 -1.38,0.39 -4.15,-6.04 -10.9,-9.77 -18.31,-10 v -1.6 h 1.07 v -1.77 h -1.07 v -1.21 h -1.77 v 1.21 h -1.07 v 1.77 h 1.07 v 1.64 c -7.23,0.33 -13.9,4.09 -17.96,9.98 -0.41,-0.25 -0.9,-0.41 -1.42,-0.41 -1.48,0 -2.67,1.19 -2.67,2.67 0,1.09 0.66,2.03 1.6,2.44 -0.1,0.25 -0.18,0.49 -0.27,0.76 l -0.1,0.25 1.75,6.8 h 40.24 l 1.74,-6.88 -0.08,-0.25 c -0.08,-0.25 -0.16,-0.47 -0.27,-0.7 0.9,-0.43 1.54,-1.36 1.54,-2.42 z m -40.93,-0.76 c 3.88,-6.02 10.66,-9.77 17.9,-9.77 7.24,0 13.94,3.67 17.86,9.69 0.33,0.51 0.66,1.07 0.94,1.62 0,0.02 0.02,0.06 0.02,0.1 0,0.39 -0.06,0.78 -0.18,1.15 -0.49,1.7 -2.05,2.94 -3.92,2.94 -2.03,0 -3.7,-1.46 -4.02,-3.41 0.99,-0.39 1.68,-1.33 1.68,-2.48 0,-0.76 -0.33,-1.52 -0.92,-2.01 -0.47,-0.43 -1.11,-0.66 -1.74,-0.66 -0.63,0 -1.21,0.21 -1.68,0.6 -0.64,0.49 -1.01,1.25 -1.01,2.07 0,1.17 0.74,2.16 1.79,2.53 -0.35,1.91 -2.01,3.37 -4.02,3.37 -2.01,0 -3.72,-1.46 -4.04,-3.39 1.01,-0.39 1.72,-1.38 1.72,-2.5 0,-0.8 -0.35,-1.54 -0.94,-2.03 -0.94,-0.8 -2.44,-0.82 -3.43,-0.04 -0.64,0.51 -0.99,1.27 -0.99,2.07 0,1.15 0.72,2.14 1.75,2.5 -0.33,1.93 -2.01,3.39 -4.02,3.39 -2.01,0 -3.7,-1.46 -4.04,-3.39 1.03,-0.37 1.74,-1.35 1.74,-2.5 0,-0.8 -0.35,-1.56 -0.96,-2.05 -0.96,-0.8 -2.44,-0.8 -3.41,0 -0.64,0.49 -0.99,1.25 -0.99,2.05 0,1.15 0.72,2.14 1.74,2.5 -0.33,1.93 -2.01,3.39 -4.02,3.39 -1.81,0 -3.33,-1.13 -3.88,-2.73 -0.08,-0.25 -0.14,-0.51 -0.18,-0.76 0.39,-0.78 0.8,-1.52 1.27,-2.24 z m 28.51,-0.17 c 0,0.51 -0.39,0.9 -0.88,0.92 h -0.08 c -0.49,-0.02 -0.88,-0.43 -0.88,-0.92 0,-0.29 0.14,-0.53 0.35,-0.72 0.12,-0.08 0.31,-0.21 0.6,-0.21 0.27,0 0.47,0.12 0.6,0.25 0.2,0.16 0.31,0.41 0.31,0.68 z m -9.91,0 c 0,0.49 -0.41,0.92 -0.92,0.92 -0.51,0 -0.92,-0.41 -0.92,-0.92 0,-0.29 0.12,-0.53 0.35,-0.72 0.1,-0.08 0.31,-0.21 0.57,-0.21 0.23,0 0.43,0.08 0.6,0.23 0.2,0.16 0.33,0.43 0.33,0.7 z m -9.94,0 c 0,0.51 -0.41,0.92 -0.9,0.92 -0.49,0 -0.92,-0.41 -0.92,-0.92 0,-0.27 0.12,-0.53 0.33,-0.7 0.12,-0.1 0.31,-0.23 0.6,-0.23 0.2,0 0.41,0.08 0.59,0.23 0.21,0.16 0.31,0.41 0.31,0.7 z m -11.58,1.77 c -0.33,-0.14 -0.55,-0.47 -0.55,-0.84 0,-0.51 0.41,-0.92 0.92,-0.92 0.18,0 0.35,0.06 0.49,0.14 -0.31,0.53 -0.59,1.07 -0.86,1.62 z m 39.54,7.66 h -37.51 l -1.05,-4.15 c 1.07,1.46 2.77,2.38 4.72,2.38 2.09,0 3.92,-1.13 4.97,-2.79 1.03,1.66 2.85,2.79 4.97,2.79 2.12,0 3.94,-1.13 4.97,-2.79 1.05,1.66 2.87,2.79 4.99,2.79 2.12,0 3.94,-1.13 4.97,-2.79 1.03,1.66 2.87,2.79 4.97,2.79 2.32,0 4.33,-1.38 5.28,-3.35 0,0.02 0.02,0.04 0.02,0.06 l -1.29,5.05 z m 2.08,-7.7 c -0.1,-0.23 -0.23,-0.45 -0.35,-0.68 -0.16,-0.31 -0.33,-0.62 -0.51,-0.92 0.14,-0.08 0.29,-0.12 0.45,-0.12 0.49,0 0.9,0.41 0.9,0.92 0,0.35 -0.18,0.66 -0.49,0.8 z"
             id="path485"
             style="fill:#53575a" />
          <path
             class="st7"
             d="M -1722.18,532.66"
             id="path486"
             style="fill:#53575a" />
          <path
             class="st7"
             d="m -1666.04,546.3 v -1.27 c 0,-1.56 -0.92,-2.75 -2.28,-2.98 v 1.35 c 0.66,0.23 0.96,0.92 0.96,1.62 v 2.28 l 1.68,0.45 v -1.38 l -0.37,-0.08 z m 31.55,4.77 c 0,-1.44 -0.53,-2.75 -1.42,-3.76 -0.23,-0.23 -3.2,-3.2 -3.84,-6.14 -0.35,-1.54 -0.25,-2.67 0.29,-3.35 0.45,-0.53 1.23,-0.82 2.32,-0.82 0.96,0 1.54,0.57 1.83,1.05 0.06,0.1 0.12,0.18 0.16,0.29 l -2.16,0.78 c -0.35,0.12 -0.37,0.64 -0.02,0.78 l 0.29,0.1 c 0.92,0.39 1.31,1.93 1.38,2.5 l 0.04,0.31 c 0.04,0.37 0.49,0.47 0.72,0.21 l 0.18,-0.25 c 1.15,-1.52 1.27,-3.72 0.31,-5.28 -0.64,-0.99 -1.6,-1.54 -2.73,-1.54 -1.44,0 -2.48,0.41 -3.14,1.21 -0.74,0.92 -0.9,2.36 -0.51,4.23 0.35,1.52 1.19,3 2.03,4.17 0.76,1.05 1.5,1.85 1.87,2.24 0.02,0.02 0.04,0.02 0.04,0.04 0.82,0.84 1.31,1.97 1.31,3.22 0,2.3 -1.68,4.21 -3.88,4.56 l -0.55,-0.04 c -0.25,-0.02 -5.73,-0.62 -5.91,-7.55 2.28,-1.46 4,-3.84 4.31,-7.16 0.33,-3.61 -0.92,-5.89 -2.03,-7.14 -0.45,-0.51 -0.92,-0.9 -1.33,-1.21 0.96,-0.08 1.72,-0.9 1.72,-1.89 0,-1.05 -0.86,-1.89 -1.91,-1.89 -1.05,0 -1.89,0.84 -1.89,1.89 v 0.6 h -10.92 v 2.22 c 0,0.94 0.64,1.77 1.54,2.01 l 1.58,0.43 c 0.33,0.1 0.68,0.04 0.96,-0.18 0.27,-0.21 0.43,-0.51 0.43,-0.88 l 0.99,0.35 c 0.39,0.14 0.62,0.57 0.51,0.99 -0.1,0.39 -0.49,0.64 -0.9,0.6 -1.56,-0.23 -4.02,-1.03 -4.04,-1.03 l -0.7,-0.23 -0.35,1.52 c -0.31,1.42 0.53,2.83 1.91,3.24 l 0.18,0.04 c -0.35,0.23 -0.68,0.47 -0.99,0.74 l -4.78,-2.32 v -1.35 c 0,-1.54 -1.15,-2.79 -2.65,-3 -0.12,-0.02 -0.25,-0.02 -0.39,-0.02 h -0.94 v 6.53 l 1.33,1.33 4.39,4.39 c -0.04,0.23 -0.08,0.47 -0.12,0.7 v 0.08 c 0,0 -0.02,0.04 -0.02,0.06 v 0.06 c -0.02,0.14 -0.04,0.27 -0.06,0.39 l -4.19,-1.11 -1.44,-0.39 -0.37,-0.08 v -1.27 c 0,-1.56 -0.92,-2.75 -2.28,-2.98 -0.14,-0.02 -0.31,-0.04 -0.49,-0.04 h -0.94 v 6.59 l 1.44,1.07 2.65,1.95 1.44,1.07 5.34,3.96 0.33,-0.74 c 0,0 0.66,-1.42 1.83,-2.85 0.41,1.31 1.13,2.81 2.32,4.13 l -2.38,3.63 c -1.33,2.03 -1.09,4.66 0.57,6.43 l 0.25,0.25 -1.91,2.34 h -2.03 c -1.15,0 -2.07,0.92 -2.07,2.07 v 1.91 h 5.93 l 6.06,-7.08 -0.43,-0.43 c -0.18,-0.18 -0.29,-0.43 -0.29,-0.68 0,-0.25 0.08,-0.49 0.27,-0.66 l 3.39,-2.59 v 0.96 c 0.16,1.48 1.4,4.17 4.91,4.62 l -0.9,1.93 h -2.16 c -1.15,0 -2.07,0.92 -2.07,2.05 v 1.87 h 6.22 l 5.48,-9.59 -1.09,-0.04 c -0.72,-0.04 -1.4,-0.35 -1.91,-0.86 -0.49,-0.53 -0.78,-1.23 -0.78,-1.95 v -4.68 c 2.75,-0.39 4.89,-2.75 4.89,-5.63 z m -0.36,-11.73 c 0.08,0.53 0.04,1.11 -0.12,1.62 -0.16,-0.43 -0.41,-0.9 -0.76,-1.29 z m -10.27,-9.3 c 0.33,0 0.6,0.27 0.6,0.57 0,0.33 -0.27,0.6 -0.6,0.6 -0.31,0 -0.57,-0.27 -0.57,-0.6 0,-0.31 0.27,-0.57 0.57,-0.57 z m -11.5,7.25 0.02,-0.12 c 0.88,0.27 2.44,0.7 3.59,0.86 1.07,0.14 2.07,-0.51 2.36,-1.54 0.29,-1.07 -0.31,-2.2 -1.33,-2.57 l -0.99,-0.35 c -0.41,-0.14 -0.86,-0.08 -1.21,0.16 -0.27,0.18 -0.47,0.47 -0.53,0.8 l -1.33,-0.37 c -0.33,-0.08 -0.57,-0.39 -0.57,-0.74 v -0.9 h 9.53 c -0.12,3.43 -2.65,4.64 -5.56,6.04 l -1.6,0.8 -1.38,-0.39 c -0.72,-0.21 -1.15,-0.94 -0.99,-1.68 z m 0.29,5.09 c 1.13,-1.13 2.73,-1.89 4.25,-2.63 2.79,-1.36 5.69,-2.73 6.22,-6.28 1.23,0.82 3.37,2.89 2.98,7.27 -0.45,4.84 -4.39,7.35 -8.31,7.78 -0.2,0.02 -0.41,0.04 -0.62,0.04 h -5.69 c -0.25,0.02 -0.45,0.04 -0.57,0.08 -0.04,0.02 -0.08,0.02 -0.1,0.02 0,0 -0.02,0.02 -0.04,0.02 h -0.02 c 0,0 -0.02,0 -0.02,0.02 -0.08,0.02 -0.16,0.04 -0.25,0.08 -0.08,0.04 -0.18,0.1 -0.29,0.14 0.02,-0.12 0.02,-0.27 0.04,-0.41 0.04,-0.72 0.14,-1.5 0.35,-2.3 0,-0.02 0.02,-0.02 0.02,-0.04 0.35,-1.36 0.96,-2.73 2.05,-3.8 z m -7.9,-2.05 -0.02,-0.02 v -4.62 h 0.02 c 0.76,0.18 1.31,0.86 1.31,1.66 v 2.18 l 5.13,2.5 c -0.78,0.92 -1.31,1.99 -1.66,3.08 z m 6.67,11.64 c -0.84,1.01 -1.46,2.01 -1.83,2.67 l -4.84,-3.59 -1.44,-1.07 -2.65,-1.95 -0.12,-0.1 v -4.56 c 0,0 0.08,0.02 0.12,0.04 0.66,0.23 0.96,0.92 0.96,1.62 v 2.28 l 1.68,0.45 1.44,0.39 4.11,1.09 v 0.29 c 0,0.25 0.02,0.45 0.06,0.66 0.04,0.53 0.1,1.09 0.25,1.56 0,0 0.06,-0.21 0.21,-0.47 0.29,-0.49 0.84,-1.21 1.81,-1.35 h 0.04 c 0.06,-0.02 0.1,-0.02 0.16,-0.02 h 2.28 c -0.76,0.53 -1.52,1.23 -2.24,2.07 z m 10.49,8.75 -4.31,3.28 c -0.43,0.43 -0.66,1.01 -0.66,1.62 0,0.39 0.1,0.78 0.29,1.11 l -4.91,5.77 h -4 v -0.6 c 0,-0.41 0.33,-0.76 0.74,-0.76 h 2.65 l 3.06,-3.72 -1.05,-1.11 c -1.25,-1.29 -1.44,-3.26 -0.45,-4.78 l 2.26,-3.43 c 1.48,1.23 3.53,2.16 6.38,2.28 v 0.33 z m 9.32,4.61 -4.09,7.16 h -4.15 v -0.55 c 0,-0.41 0.35,-0.74 0.76,-0.74 h 3 l 2.09,-4.52 h -1.05 c -3.96,0 -4.54,-3.1 -4.58,-3.47 v -4.15 h -0.66 c -6.12,0 -8.44,-3.86 -9.3,-7.14 1.01,-0.96 2.24,-1.81 3.65,-2.05 h 0.29 c 1.56,-0.06 3.16,-0.45 4.6,-1.13 0.43,5.48 4.09,7.6 6.49,8.07 v 4.56 c 0,1.07 0.41,2.07 1.15,2.85 0.49,0.51 1.11,0.9 1.79,1.11 z m -28.29,-19.03 v -1.27 c 0,-1.56 -0.92,-2.75 -2.28,-2.98 v 1.35 c 0.66,0.23 0.96,0.92 0.96,1.62 v 2.28 l 1.68,0.45 v -1.38 l -0.37,-0.08 z"
             id="path487"
             style="fill:#53575a" />
          <path
             class="st7"
             d="m -1699.93,542.01 c -0.14,0 -0.31,0.02 -0.45,0.04 h -0.04 c -1.33,0.23 -2.26,1.42 -2.26,2.98 v 1.27 l -0.33,0.06 -0.06,0.02 -1.4,0.37 -0.04,0.02 -4.19,1.11 c -0.02,-0.12 -0.02,-0.25 -0.04,-0.39 -0.02,-0.02 -0.02,-0.04 -0.02,-0.06 v -0.06 c -0.02,-0.06 -0.02,-0.08 -0.02,-0.08 -0.04,-0.23 -0.06,-0.47 -0.12,-0.7 l 4.43,-4.43 1.29,-1.29 v -6.53 h -0.94 c -0.1,0 -0.25,0 -0.35,0.02 h -0.04 c -1.48,0.21 -2.63,1.46 -2.63,3 v 1.35 l -4.78,2.32 c -0.31,-0.27 -0.66,-0.51 -0.99,-0.74 l 0.16,-0.04 c 1.4,-0.41 2.24,-1.83 1.91,-3.24 l -0.35,-1.52 -0.68,0.23 c 0,0 -2.51,0.8 -4.07,1.03 -0.41,0.04 -0.78,-0.21 -0.88,-0.6 -0.12,-0.41 0.1,-0.84 0.49,-0.99 l 0.99,-0.35 c 0,0.37 0.16,0.68 0.45,0.88 0.27,0.23 0.62,0.29 0.97,0.18 l 1.56,-0.43 c 0.9,-0.25 1.54,-1.07 1.54,-2.01 v -2.22 h -10.92 v -0.6 c 0,-1.05 -0.84,-1.89 -1.89,-1.89 -1.05,0 -1.91,0.84 -1.91,1.89 0,0.99 0.76,1.81 1.72,1.89 -0.41,0.31 -0.86,0.7 -1.31,1.21 -1.11,1.25 -2.36,3.53 -2.03,7.14 0.29,3.33 2.01,5.71 4.29,7.16 -0.16,6.94 -5.67,7.53 -5.89,7.55 l -0.57,0.04 c -2.2,-0.35 -3.88,-2.26 -3.88,-4.56 0,-1.25 0.51,-2.38 1.31,-3.22 q 0,0 0.04,-0.04 c 0.39,-0.39 1.13,-1.19 1.87,-2.24 0.84,-1.17 1.7,-2.65 2.03,-4.17 0.41,-1.87 0.25,-3.31 -0.51,-4.23 -0.66,-0.8 -1.7,-1.21 -3.14,-1.21 -1.13,0 -2.09,0.55 -2.71,1.54 -0.99,1.56 -0.86,3.76 0.29,5.28 l 0.18,0.25 c 0.23,0.27 0.68,0.16 0.72,-0.21 l 0.04,-0.31 c 0.08,-0.57 0.45,-2.11 1.4,-2.5 l 0.27,-0.1 c 0.35,-0.14 0.35,-0.66 -0.02,-0.78 l -2.16,-0.78 c 0.06,-0.1 0.1,-0.18 0.16,-0.29 0.31,-0.47 0.86,-1.05 1.83,-1.05 1.11,0 1.89,0.29 2.32,0.82 0.53,0.68 0.64,1.81 0.31,3.35 -0.68,3.04 -3.84,6.1 -3.86,6.14 -0.88,1.01 -1.42,2.32 -1.42,3.76 0,2.87 2.14,5.24 4.89,5.63 v 4.68 c 0,0.72 -0.27,1.42 -0.78,1.95 -0.49,0.51 -1.17,0.82 -1.91,0.86 l -1.09,0.04 5.48,9.59 h 6.22 v -1.87 c 0,-1.13 -0.92,-2.05 -2.05,-2.05 h -2.18 l -0.88,-1.93 c 3.49,-0.45 4.74,-3.14 4.89,-4.62 l 0.02,-0.96 3.39,2.59 c 0.16,0.16 0.25,0.41 0.25,0.66 0,0.25 -0.1,0.49 -0.27,0.68 l -0.45,0.43 6.06,7.08 h 5.93 v -1.91 c 0,-1.15 -0.92,-2.07 -2.07,-2.07 h -2.01 l -1.93,-2.34 0.25,-0.25 c 1.68,-1.77 1.93,-4.39 0.59,-6.43 l -2.38,-3.63 c 1.17,-1.31 1.89,-2.81 2.32,-4.13 1.15,1.44 1.79,2.81 1.81,2.85 l 0.33,0.74 5.34,-3.96 0.04,-0.02 1.4,-1.05 0.06,-0.04 2.59,-1.91 0.04,-0.02 1.27,-0.96 0.12,-0.08 v -6.59 h -0.94 z m -33.08,-2.34 c -0.35,0.39 -0.6,0.86 -0.76,1.29 -0.14,-0.51 -0.2,-1.09 -0.12,-1.62 z m 27.18,-0.14 v -2.18 c 0,-0.8 0.55,-1.48 1.31,-1.66 h 0.02 v 4.62 l -4.78,4.8 c -0.37,-1.09 -0.88,-2.16 -1.66,-3.08 z m -6.3,-7 v 0.9 c 0,0.35 -0.25,0.66 -0.57,0.74 l -1.33,0.37 c -0.06,-0.33 -0.27,-0.62 -0.53,-0.8 -0.35,-0.25 -0.8,-0.31 -1.21,-0.16 l -0.96,0.35 c -1.05,0.37 -1.64,1.5 -1.35,2.57 0.29,1.03 1.29,1.68 2.36,1.54 1.17,-0.16 2.71,-0.6 3.59,-0.86 l 0.02,0.12 c 0.16,0.74 -0.27,1.48 -0.99,1.68 l -1.35,0.39 c -0.53,-0.27 -1.09,-0.53 -1.62,-0.8 -2.92,-1.4 -5.42,-2.61 -5.56,-6.04 h 9.53 z m -12.07,-1.91 c 0,-0.31 0.27,-0.57 0.57,-0.57 0.33,0 0.57,0.27 0.57,0.57 0,0.33 -0.25,0.6 -0.57,0.6 -0.31,0 -0.57,-0.27 -0.57,-0.6 z m -1.64,10.12 c -0.41,-4.37 1.72,-6.45 2.96,-7.27 0.55,3.55 3.43,4.93 6.22,6.28 1.54,0.74 3.12,1.5 4.25,2.63 1.09,1.07 1.72,2.44 2.07,3.8 v 0.04 c 0.21,0.8 0.31,1.58 0.37,2.3 0,0.14 0.02,0.29 0.02,0.41 -0.1,-0.04 -0.18,-0.1 -0.29,-0.14 -0.08,-0.04 -0.16,-0.06 -0.23,-0.08 -0.02,-0.02 -0.04,-0.02 -0.04,-0.02 h -0.02 c 0,0 -0.02,-0.02 -0.04,-0.02 -0.02,0 -0.06,0 -0.08,-0.02 -0.14,-0.04 -0.35,-0.06 -0.6,-0.08 h -5.67 c -0.2,0 -0.43,-0.02 -0.64,-0.04 -3.92,-0.43 -7.86,-2.94 -8.29,-7.78 z m 12.81,20.8 c 0.99,1.52 0.8,3.49 -0.43,4.78 l -1.07,1.11 3.06,3.72 h 2.65 c 0.43,0 0.76,0.35 0.76,0.76 v 0.6 h -4 l -4.93,-5.77 c 0.2,-0.33 0.31,-0.72 0.31,-1.11 0,-0.62 -0.25,-1.19 -0.68,-1.62 l -4.29,-3.28 v -0.33 c 2.83,-0.12 4.89,-1.05 6.38,-2.28 l 2.24,3.43 z m -9.28,-2.47 h -0.66 v 4.15 c -0.06,0.37 -0.64,3.47 -4.6,3.47 h -1.03 l 2.07,4.52 h 3.02 c 0.41,0 0.74,0.33 0.74,0.74 v 0.55 h -4.13 l -4.11,-7.16 c 0.68,-0.21 1.29,-0.6 1.81,-1.11 0.74,-0.78 1.15,-1.79 1.15,-2.85 v -4.56 c 2.38,-0.47 6.04,-2.59 6.47,-8.07 1.44,0.68 3.04,1.07 4.6,1.13 h 0.29 c 1.44,0.25 2.67,1.09 3.65,2.05 -0.86,3.28 -3.16,7.14 -9.28,7.14 z m 22.01,-11.14 -0.08,0.06 -0.04,0.04 -2.65,1.95 -1.4,1.05 -0.04,0.02 -4.85,3.59 c -0.35,-0.66 -0.96,-1.66 -1.83,-2.67 -0.72,-0.84 -1.46,-1.54 -2.24,-2.07 h 2.3 c 0,0 0.1,0 0.14,0.02 h 0.06 c 0.96,0.14 1.52,0.86 1.79,1.35 0.16,0.27 0.23,0.47 0.23,0.47 0.12,-0.47 0.2,-1.03 0.23,-1.56 0.04,-0.21 0.06,-0.41 0.06,-0.66 v -0.29 l 4.11,-1.09 0.04,-0.02 1.4,-0.37 0.06,-0.02 1.64,-0.43 v -2.28 c 0,-0.7 0.29,-1.4 0.94,-1.62 0.02,0 0.02,-0.02 0.04,-0.02 0.02,0 0.06,0 0.08,-0.02 v 4.56 z"
             id="path488"
             style="fill:#53575a" />
          <path
             class="st7"
             d="M -1657.44,549.89"
             id="path489"
             style="fill:#53575a" />
          <path
             class="st7"
             d="m -1657.44,549.89 c -0.05,0 -0.11,0 -0.16,0 0.02,0 0.03,0 0.05,0 z"
             id="path490"
             style="fill:#53575a" />
          <g
             id="g495">
            <path
               class="st7"
               d="m -1731.5,595.04 v -17.33 h -3.26 v 20.59 h 14.25 v -3.26 h -10.98 z"
               id="path491"
               style="fill:#53575a" />
            <path
               class="st7"
               d="m -1703.47,581.02 v -3.26 h -14.25 v 20.55 h 14.25 v -3.26 h -10.98 v -5.4 h 9.4 v -3.26 h -9.4 v -5.36 h 10.98 z"
               id="path492"
               style="fill:#53575a" />
            <path
               class="st7"
               d="m -1687.23,590.05 c 2.4,-0.88 4.13,-3.2 4.13,-5.95 0,-3.51 -2.85,-6.34 -6.34,-6.34 h -10 v 20.55 h 3.26 v -7.84 h 5.44 l 4.25,7.84 h 3.74 l -4.48,-8.25 z m -2.22,-2.85 h -6.73 v -6.18 h 6.73 c 1.68,0 3.08,1.38 3.08,3.08 0,1.7 -1.4,3.1 -3.08,3.1 z"
               id="path493"
               style="fill:#53575a" />
            <path
               class="st7"
               d="m -1661.57,577.71 -6.92,10.51 -6.9,-10.51 h -3.94 l 0.08,0.1 v 20.49 h 3.26 v -15.52 l 5.52,8.38 h 3.92 l 5.52,-8.38 v 15.52 h 3.26 v -20.49 l 0.08,-0.1 h -3.9 z"
               id="path494"
               style="fill:#53575a" />
            <path
               class="st7"
               d="m -1642.32,577.71 h -3.84 l -8.31,20.59 h 3.88 l 1.29,-3.22 0.8,-1.95 h 8.5 l 0.8,1.95 1.29,3.22 h 3.92 l -8.34,-20.59 z m -4.84,12.18 2.94,-7.29 2.92,7.29 h -5.85 z"
               id="path495"
               style="fill:#53575a" />
          </g>
        </g>
        <g
           id="g503">
          <path
             class="st4"
             d="m -1454.04,576.18 c 0,6.5 -2.83,12.33 -7.34,16.34 -1.12,-0.84 -1.84,-2.18 -1.84,-3.68 v -13.09 c 0,0 0,-0.07 0,-0.11 0,-0.06 0,-0.1 0,-0.16 0,-0.18 -0.02,-0.36 -0.04,-0.54 0,-0.05 0,-0.09 -0.02,-0.14 0,-0.1 -0.02,-0.21 -0.04,-0.31 0,-0.13 -0.04,-0.25 -0.06,-0.38 -0.02,-0.11 -0.04,-0.21 -0.06,-0.31 -0.08,-0.43 -0.19,-0.84 -0.31,-1.26 0.6,1.84 2.33,3.18 4.37,3.18 1.27,0 2.42,-0.52 3.25,-1.35 0.83,-0.83 1.34,-1.98 1.34,-3.25 0,-0.32 -0.02,-0.62 -0.09,-0.93 0,-0.06 -0.02,-0.11 -0.04,-0.16 0.04,0.1 0.06,0.21 0.09,0.32 0.02,0.04 0.03,0.07 0.04,0.11 0.03,0.12 0.06,0.24 0.09,0.36 0.03,0.13 0.06,0.26 0.09,0.39 0,0.02 0,0.03 0,0.04 0.03,0.13 0.06,0.25 0.08,0.38 0.1,0.49 0.19,0.99 0.26,1.5 0.15,1 0.21,2.02 0.21,3.05 z"
             id="path496"
             style="fill:#940731" />
          <path
             class="st4"
             d="m -1454.03,587.91 v 0.93 c 0,1.28 -0.52,2.43 -1.35,3.25 -0.69,0.7 -1.62,1.18 -2.66,1.31 1.57,-1.63 2.93,-3.47 4.01,-5.48 z"
             id="path497"
             style="fill:#940731" />
          <path
             class="st12"
             d="m -1454.79,571.11 c 0,1.27 -0.51,2.42 -1.34,3.25 -0.83,0.83 -1.98,1.35 -3.25,1.35 -2.04,0 -3.77,-1.33 -4.37,-3.18 0,-0.02 0,-0.04 -0.02,-0.06 0,-0.03 0,-0.05 -0.02,-0.06 -0.03,-0.1 -0.06,-0.19 -0.09,-0.3 -0.03,-0.07 -0.06,-0.15 -0.08,-0.21 -0.02,-0.06 -0.05,-0.13 -0.06,-0.19 0,0 0,-0.02 0,-0.04 -0.03,-0.06 -0.06,-0.14 -0.09,-0.21 -0.11,-0.28 -0.23,-0.56 -0.36,-0.82 -0.04,-0.06 -0.06,-0.13 -0.1,-0.19 -0.13,-0.27 -0.28,-0.53 -0.43,-0.78 -0.05,-0.07 -0.08,-0.14 -0.12,-0.19 -0.05,-0.07 -0.09,-0.14 -0.14,-0.21 -0.04,-0.06 -0.07,-0.11 -0.1,-0.17 -0.06,-0.07 -0.12,-0.16 -0.18,-0.24 -0.05,-0.06 -0.09,-0.14 -0.15,-0.2 -0.05,-0.06 -0.09,-0.13 -0.15,-0.19 -0.05,-0.06 -0.1,-0.13 -0.15,-0.19 -0.06,-0.06 -0.11,-0.13 -0.16,-0.19 -0.16,-0.19 -0.32,-0.37 -0.49,-0.56 l -0.35,-0.35 c -0.06,-0.06 -0.11,-0.11 -0.18,-0.17 -0.12,-0.11 -0.24,-0.23 -0.36,-0.33 l -0.03,-0.03 c 0,0 -0.04,-0.03 -0.06,-0.04 q 0,0 0,0 c -0.06,-0.06 -0.11,-0.1 -0.18,-0.16 -0.06,-0.05 -0.12,-0.09 -0.18,-0.14 -0.04,-0.04 -0.08,-0.06 -0.12,-0.09 -0.1,-0.08 -0.21,-0.17 -0.31,-0.24 -0.06,-0.05 -0.12,-0.09 -0.19,-0.13 -0.08,-0.06 -0.18,-0.13 -0.27,-0.19 -0.04,-0.03 -0.08,-0.06 -0.12,-0.08 -0.12,-0.07 -0.23,-0.15 -0.35,-0.21 -0.1,-0.06 -0.2,-0.13 -0.31,-0.19 -0.06,-0.04 -0.11,-0.06 -0.17,-0.1 -0.13,-0.06 -0.26,-0.14 -0.4,-0.2 -0.04,-0.02 -0.07,-0.04 -0.11,-0.06 -0.16,-0.07 -0.31,-0.15 -0.47,-0.21 -0.02,0 -0.03,-0.02 -0.05,-0.03 -0.09,-0.04 -0.19,-0.07 -0.28,-0.11 -0.05,-0.02 -0.08,-0.04 -0.12,-0.05 -0.06,-0.03 -0.11,-0.05 -0.17,-0.06 0,0 -0.02,0 -0.02,0 -0.06,-0.02 -0.1,-0.04 -0.15,-0.06 -0.03,0 -0.06,-0.02 -0.08,-0.03 -0.02,0 -0.05,-0.02 -0.07,-0.03 -0.07,-0.03 -0.14,-0.05 -0.21,-0.07 h -0.03 c 0,0 -0.03,-0.02 -0.05,-0.02 0,0 -0.02,0 -0.03,0 -0.02,0 -0.04,0 -0.06,-0.02 -0.05,-0.02 -0.09,-0.03 -0.15,-0.05 -0.02,0 -0.04,0 -0.06,-0.02 -0.02,0 -0.04,0 -0.06,0 -0.02,0 -0.03,0 -0.04,0 -0.07,-0.03 -0.14,-0.05 -0.21,-0.06 -0.03,0 -0.05,0 -0.07,-0.02 -0.07,-0.02 -0.16,-0.04 -0.24,-0.06 -0.02,0 -0.04,0 -0.06,-0.02 v 0 c 0,0 0,0 -0.02,0 h -0.04 c 0,0 -0.03,0 -0.04,0 0,0 -0.03,0 -0.04,0 -0.05,0 -0.1,-0.02 -0.15,-0.04 -0.05,0 -0.08,-0.02 -0.13,-0.03 -0.05,-0.01 -0.09,-0.02 -0.14,-0.02 0,0 -0.03,0 -0.04,0 -0.01,0 0,0 -0.02,0 -0.08,0 -0.17,-0.03 -0.25,-0.04 -0.08,-0.02 -0.17,-0.03 -0.24,-0.04 -0.07,-0.01 -0.15,-0.02 -0.22,-0.03 0,0 -0.03,0 -0.05,0 -0.08,0 -0.18,-0.02 -0.27,-0.03 h -0.03 c -0.09,0 -0.18,-0.02 -0.26,-0.03 -0.1,0 -0.2,0 -0.3,-0.02 -0.08,0 -0.16,0 -0.23,0 -0.09,0 -0.19,0 -0.27,0 2.46,-0.09 4.42,-2.11 4.42,-4.58 v 0 c 0,-2.44 -1.88,-4.43 -4.27,-4.6 5.29,0.07 10.14,2.04 13.88,5.25 0.12,0.1 0.24,0.2 0.36,0.31 0.06,0.06 0.13,0.12 0.19,0.18 0.05,0.04 0.08,0.07 0.12,0.11 0.08,0.08 0.17,0.16 0.25,0.24 0.05,0.04 0.09,0.08 0.13,0.12 0.02,0.02 0.04,0.04 0.06,0.06 0.05,0.05 0.08,0.08 0.13,0.13 0.02,0.02 0.04,0.04 0.06,0.06 0.05,0.05 0.09,0.09 0.13,0.13 0.02,0.02 0.04,0.04 0.06,0.06 0.1,0.11 0.2,0.21 0.3,0.31 0.05,0.05 0.08,0.09 0.13,0.14 0.05,0.06 0.09,0.1 0.14,0.16 0.06,0.06 0.12,0.13 0.18,0.19 0,0 0.02,0.03 0.03,0.04 0.02,0.02 0.05,0.05 0.06,0.07 0.07,0.08 0.14,0.17 0.21,0.24 0.04,0.05 0.06,0.08 0.1,0.13 0.06,0.07 0.13,0.15 0.19,0.23 0.08,0.09 0.15,0.19 0.22,0.28 0.11,0.14 0.22,0.28 0.32,0.43 0.07,0.09 0.14,0.19 0.21,0.29 0.47,0.67 0.92,1.36 1.31,2.07 0.07,0.14 0.15,0.28 0.22,0.42 0.07,0.14 0.15,0.28 0.22,0.43 0.05,0.09 0.09,0.19 0.14,0.28 0.06,0.11 0.1,0.22 0.16,0.33 0.05,0.11 0.1,0.21 0.15,0.32 0.06,0.13 0.11,0.26 0.17,0.39 0.05,0.1 0.08,0.21 0.13,0.32 0.05,0.11 0.09,0.23 0.14,0.34 0.05,0.12 0.08,0.24 0.13,0.36 0.05,0.11 0.08,0.23 0.13,0.35 0.04,0.11 0.07,0.22 0.1,0.32 0.06,0.2 0.13,0.4 0.19,0.6 0.02,0.05 0.03,0.1 0.04,0.16 0.07,0.31 0.09,0.6 0.09,0.93 z"
             id="path498"
             style="fill:#00aeea" />
          <path
             class="st9"
             d="m -1497.57,573.68 c -0.02,0.08 -0.03,0.18 -0.04,0.26 0,-0.06 0.02,-0.11 0.02,-0.18 0,-0.03 0,-0.06 0.02,-0.08 z"
             id="path499"
             style="fill:#00ae42" />
          <path
             class="st8"
             d="m -1471.28,558.93 v 0 c 0,2.48 -1.96,4.5 -4.42,4.59 h -0.18 c -2.15,0 -4.16,0.54 -5.92,1.47 -0.2,0.1 -0.39,0.21 -0.58,0.32 -0.13,0.08 -0.25,0.16 -0.38,0.24 -0.31,0.2 -0.62,0.43 -0.92,0.66 -0.22,0.18 -0.44,0.35 -0.65,0.55 -0.07,0.06 -0.15,0.13 -0.21,0.19 v 0 c -0.07,0.07 -0.15,0.15 -0.23,0.22 -0.07,0.07 -0.15,0.16 -0.22,0.23 -0.07,0.07 -0.15,0.16 -0.22,0.23 v 0 c -0.4,0.44 -0.76,0.9 -1.09,1.38 -0.04,0.06 -0.07,0.12 -0.12,0.18 -0.04,0.06 -0.08,0.13 -0.12,0.19 -0.04,0.06 -0.07,0.13 -0.11,0.19 v 0 c -0.05,0.06 -0.08,0.13 -0.12,0.19 -0.04,0.06 -0.07,0.13 -0.11,0.19 -0.04,0.06 -0.06,0.12 -0.1,0.19 -0.04,0.06 -0.07,0.13 -0.1,0.19 -0.04,0.06 -0.07,0.13 -0.1,0.2 -0.04,0.06 -0.06,0.13 -0.1,0.19 -0.19,0.42 -0.37,0.85 -0.53,1.3 -0.03,0.07 -0.06,0.15 -0.07,0.23 0,0.02 -0.02,0.04 -0.03,0.06 -0.02,0.05 -0.04,0.1 -0.05,0.16 -0.03,0.07 -0.05,0.15 -0.06,0.22 q 0,0 0,0.02 c -0.02,0.07 -0.04,0.14 -0.06,0.21 0,0.04 -0.03,0.08 -0.04,0.13 -0.05,0.19 -0.09,0.38 -0.13,0.56 -0.04,0.19 -0.07,0.4 -0.11,0.59 0.03,-0.14 0.03,-0.28 0.03,-0.42 0,-1.27 -0.51,-2.43 -1.34,-3.26 -0.83,-0.82 -1.98,-1.34 -3.25,-1.34 v 0 c -2.19,0 -4.03,1.55 -4.48,3.6 -0.02,0.11 -0.04,0.22 -0.06,0.32 0,-0.09 0.03,-0.19 0.04,-0.28 0.16,-0.99 0.37,-1.96 0.66,-2.91 0.02,-0.08 0.05,-0.18 0.07,-0.26 0.03,-0.08 0.06,-0.17 0.08,-0.26 0.03,-0.08 0.06,-0.17 0.08,-0.25 0.05,-0.12 0.08,-0.24 0.13,-0.36 0.04,-0.1 0.07,-0.2 0.11,-0.31 0.09,-0.24 0.19,-0.48 0.29,-0.72 0.05,-0.11 0.09,-0.23 0.14,-0.34 0.06,-0.11 0.1,-0.22 0.16,-0.33 0.06,-0.13 0.11,-0.26 0.18,-0.38 0.06,-0.11 0.1,-0.22 0.16,-0.33 0.15,-0.29 0.31,-0.57 0.46,-0.86 0,0 0,-0.02 0,-0.03 0.04,-0.06 0.07,-0.12 0.11,-0.19 0,0 0,-0.02 0.02,-0.03 0.07,-0.15 0.16,-0.29 0.24,-0.43 0.02,-0.02 0.03,-0.03 0.04,-0.05 0.04,-0.06 0.07,-0.13 0.11,-0.19 0.06,-0.07 0.1,-0.15 0.15,-0.22 0.03,-0.05 0.06,-0.09 0.09,-0.14 0,-0.03 0.03,-0.06 0.05,-0.08 3.9,-5.93 10.61,-9.85 18.25,-9.86 h 0.13 c 0.06,0 0.13,0 0.19,0 h 0.03 c 2.39,0.17 4.27,2.16 4.27,4.59 z"
             id="path500"
             style="fill:#009649" />
          <path
             class="st0"
             d="m -1483.08,587.27 c 0.59,0 1.16,0.11 1.68,0.31 -4.23,-2.05 -7.15,-6.38 -7.15,-11.4 0,-0.67 0.06,-1.31 0.15,-1.95 v 0 c 0.03,-0.15 0.03,-0.29 0.03,-0.43 0,-1.27 -0.51,-2.43 -1.34,-3.26 -0.83,-0.82 -1.98,-1.34 -3.25,-1.34 v 0 c -2.19,0 -4.03,1.55 -4.48,3.6 -0.02,0.11 -0.04,0.22 -0.06,0.32 0,0.03 0,0.05 0,0.07 0,0.05 0,0.08 -0.02,0.13 0,0.05 0,0.1 -0.02,0.15 0,0.06 0,0.1 -0.02,0.15 v 0.05 c 0,0 0,0.06 -0.02,0.08 0,0.06 0,0.12 -0.02,0.18 v 0 c -0.07,0.75 -0.12,1.49 -0.12,2.24 0,3.12 0.65,6.08 1.83,8.76 0,0.03 0.03,0.06 0.05,0.09 0.02,0.05 0.05,0.09 0.06,0.15 0,0.02 0.02,0.05 0.03,0.06 0.02,0.06 0.05,0.11 0.08,0.18 0.92,2 2.15,3.83 3.62,5.44 0,0 0,0.02 0,0.02 0.03,0.03 0.05,0.05 0.06,0.07 l 0.11,0.11 c 0.06,0.06 0.11,0.12 0.18,0.19 0,0.02 0.03,0.03 0.05,0.05 0.06,0.07 0.13,0.14 0.19,0.21 0.06,0.06 0.14,0.13 0.2,0.19 0,0 0,0 0,0 0,0 0.02,0.03 0.04,0.04 0.02,0.02 0.04,0.04 0.06,0.06 0,0 0.02,0.02 0.03,0.03 0.01,0.01 0.02,0.02 0.03,0.03 0.02,0.02 0.04,0.04 0.06,0.06 v 0 c 0,0 0.06,0.06 0.08,0.09 0,0 0,0 0.02,0 0.04,0.04 0.06,0.06 0.1,0.1 0.07,0.06 0.14,0.13 0.21,0.19 0.14,0.13 0.29,0.26 0.44,0.39 0.07,0.06 0.15,0.13 0.22,0.19 0.19,0.17 0.39,0.32 0.59,0.48 0.04,0.04 0.08,0.06 0.12,0.1 0.17,0.12 0.33,0.25 0.51,0.38 0.28,0.2 0.56,0.4 0.86,0.59 0.07,0.05 0.15,0.09 0.22,0.15 0.03,0.02 0.06,0.04 0.09,0.06 0.06,0.04 0.13,0.08 0.19,0.12 0.15,0.09 0.3,0.19 0.44,0.27 0.1,0.06 0.19,0.12 0.3,0.18 0.1,0.06 0.19,0.11 0.3,0.16 0,0 0.03,0.02 0.04,0.03 0.06,0.03 0.12,0.06 0.18,0.09 0.05,0.02 0.08,0.05 0.13,0.06 0.06,0.03 0.1,0.06 0.16,0.08 0.1,0.05 0.19,0.1 0.29,0.15 0.06,0.03 0.13,0.06 0.19,0.09 0.02,0 0.05,0.02 0.07,0.03 -1.43,-0.78 -2.4,-2.29 -2.4,-4.04 0,-1.27 0.51,-2.41 1.34,-3.25 0.83,-0.83 1.99,-1.34 3.25,-1.34 z"
             id="path501"
             style="fill:#e84621" />
          <path
             class="st3"
             d="m -1461.38,592.52 c -3.86,3.43 -8.93,5.5 -14.5,5.5 -0.67,0 -1.31,-0.03 -1.96,-0.08 -0.08,0 -0.16,-0.02 -0.24,-0.02 -0.11,-0.02 -0.22,-0.03 -0.33,-0.04 -0.04,0 -0.07,0 -0.11,-0.02 h -0.02 c -0.07,0 -0.16,-0.02 -0.23,-0.03 -0.14,-0.02 -0.29,-0.04 -0.44,-0.06 -0.08,0 -0.18,-0.03 -0.27,-0.04 -0.36,-0.06 -0.71,-0.13 -1.07,-0.21 -0.18,-0.04 -0.35,-0.07 -0.53,-0.12 -0.83,-0.2 -1.66,-0.45 -2.45,-0.75 -0.08,-0.04 -0.17,-0.06 -0.25,-0.1 -0.08,-0.03 -0.18,-0.06 -0.26,-0.1 -0.09,-0.04 -0.18,-0.07 -0.26,-0.11 -0.09,-0.04 -0.18,-0.06 -0.26,-0.1 -0.18,-0.08 -0.35,-0.16 -0.52,-0.24 -0.06,-0.03 -0.13,-0.06 -0.19,-0.09 -1.43,-0.78 -2.4,-2.29 -2.4,-4.04 0,-1.27 0.51,-2.41 1.34,-3.25 0.83,-0.83 1.99,-1.34 3.25,-1.34 0.59,0 1.16,0.11 1.68,0.31 1.67,0.81 3.55,1.27 5.52,1.27 0.14,0 0.27,0 0.4,0 h 12.27 c 0,1.51 0.72,2.84 1.84,3.68 z"
             id="path502"
             style="fill:#eb0045" />
          <path
             class="st3"
             d="m -1454.03,588.84 v 6.29 c 0,1.6 -1.3,2.89 -2.89,2.89 h -7.2 c 2.27,-1.22 4.31,-2.79 6.08,-4.63 1.04,-0.13 1.96,-0.6 2.66,-1.31 0.83,-0.82 1.35,-1.97 1.35,-3.25 z"
             id="path503"
             style="fill:#eb0045" />
        </g>
      </g>
    </g>
  </g>
</svg>
